<svg xmlns="http://www.w3.org/2000/svg" 
     version="1.1" xmlns:xlink="http://www.w3.org/1999/xlink" 
     xmlns:svgjs="http://svgjs.dev/svgjs" width="2000" height="2684" 
     viewBox="0 0 2000 2684">
   <g transform="matrix(1,0,0,1,-0.9545510530854244,1.0866396761132364)"><svg viewBox="0 0 184 247" data-background-color="#eecc22" preserveAspectRatio="xMidYMid meet" height="2684" width="2000" xmlns="http://www.w3.org/2000/svg" xmlns:xlink="http://www.w3.org/1999/xlink"><g id="tight-bounds" transform="matrix(1,0,0,1,0.08781869688385768,-0.09999999999999432)"><svg viewBox="0 0 183.82436260623226 247.2" height="247.2" width="183.82436260623226"><g><svg viewBox="0 0 183.82436260623228 247.20000000000002" height="247.2" width="183.82436260623226"><g><svg viewBox="0 0 183.82436260623228 247.20000000000002" height="247.20000000000002" width="183.82436260623228"><g id="textblocktransform"><svg viewBox="0 0 183.82436260623228 247.20000000000002" height="247.20000000000002" width="183.82436260623228" id="textblock"><g><svg viewBox="0 0 183.82436260623228 247.20000000000002" height="247.20000000000002" width="183.82436260623228"><g transform="matrix(1,0,0,1,0,0)"><svg width="183.82436260623228" viewBox="2.5 -35 26.25 35.3" height="247.20000000000002" data-palette-color="#ed1703"><path d="M12.05-12.05L12.05-0.7Q12.05 0.1 7.3 0.1L7.3 0.1Q2.5 0.1 2.5-0.65L2.5-0.65 2.5-33.25Q2.5-35 4.35-35L4.35-35 13.9-35Q27.05-35 27.05-24.75L27.05-24.75Q27.05-21.65 25.85-19.13 24.65-16.6 22.45-15.1L22.45-15.1 28.75-4.6Q28.35-3.4 26.15-1.85L26.15-1.85Q23.15 0.3 21.2 0.3 19.25 0.3 18.3-1.1L18.3-1.1 13.6-12.05 12.05-12.05ZM13.1-26.15L12.05-26.15 12.05-18.65 12.3-18.65Q17.05-18.65 17.05-22.6L17.05-22.6Q17.05-24.4 16.13-25.28 15.2-26.15 13.1-26.15L13.1-26.15Z" opacity="1" transform="matrix(1,0,0,1,0,0)" fill="#ed1703" class="wordmark-text-0" data-fill-palette-color="primary" id="text-0"></path></svg></g></svg></g></svg></g></svg></g><g></g></svg></g><defs></defs></svg><rect width="183.82436260623226" height="247.2" fill="none" stroke="none" visibility="hidden"></rect></g></svg></g></svg>